<svg xmlns="http://www.w3.org/2000/svg" viewBox="0 0 64 64" role="img" aria-label="B rank">
  <defs>
    <linearGradient id="g" x1="9" y1="6" x2="55" y2="58" gradientUnits="userSpaceOnUse">
      <stop offset="0" stop-color="#d7fffb"/>
      <stop offset=".5" stop-color="#55d6ce"/>
      <stop offset="1" stop-color="#1d7f8a"/>
    </linearGradient>
  </defs>
  <path d="M32 3 54 15v27L32 61 10 42V15Z" fill="#090c17"/>
  <path d="M32 5 52 16v25L32 58 12 41V16Z" fill="url(#g)"/>
  <path d="M32 10 47 18v21L32 52 17 39V18Z" fill="#08131b"/>
  <path d="M23 18h12c5 0 8 3 8 7 0 3-2 6-6 7 5 1 8 4 8 8 0 5-4 8-10 8H23Z" fill="none" stroke="url(#g)" stroke-width="6" stroke-linejoin="round"/>
  <path d="M23 18h12c5 0 8 3 8 7 0 3-2 6-6 7 5 1 8 4 8 8 0 5-4 8-10 8H23Z" fill="none" stroke="#e8fffd" stroke-width="2" stroke-linejoin="round" opacity=".6"/>
</svg>
