<svg xmlns="http://www.w3.org/2000/svg" viewBox="0 0 64 64" role="img" aria-label="D rank">
  <defs>
    <linearGradient id="g" x1="9" y1="6" x2="55" y2="58" gradientUnits="userSpaceOnUse">
      <stop offset="0" stop-color="#eef3f7"/>
      <stop offset=".5" stop-color="#9ba8b8"/>
      <stop offset="1" stop-color="#4f5b6d"/>
    </linearGradient>
  </defs>
  <path d="M32 3 54 15v27L32 61 10 42V15Z" fill="#090c17"/>
  <path d="M32 5 52 16v25L32 58 12 41V16Z" fill="url(#g)"/>
  <path d="M32 10 47 18v21L32 52 17 39V18Z" fill="#0b1018"/>
  <path d="M23 18h9c9 0 15 6 15 14S41 46 32 46h-9Z" fill="none" stroke="url(#g)" stroke-width="6" stroke-linejoin="round"/>
  <path d="M23 18h9c9 0 15 6 15 14S41 46 32 46h-9Z" fill="none" stroke="#f6f8fb" stroke-width="2" stroke-linejoin="round" opacity=".54"/>
</svg>
