<svg width="24" height="24" viewBox="0 0 24 24" fill="none" xmlns="http://www.w3.org/2000/svg"><path fill-rule="evenodd" clip-rule="evenodd" d="M2.5 6.85864C8.43403 8.52887 11.2364 15.1921 11.8958 20.7967V20.8051C12.182 20.8309 12.0782 20.8228 12.1042 20.642C12.3211 19.5057 12.4598 18.4554 12.7634 17.3277C13.9779 12.9025 16.7631 8.1154 21.5 6.86704C20.832 8.33061 20.2767 10.0093 20.3113 11.6451C20.32 12.2477 20.6237 13.0828 20.6324 13.5822C20.6498 14.357 16.0164 20.2804 15.4525 21.503L12.0347 24L8.53821 21.503L3.44551 13.9092C3.28958 13.4958 3.67995 12.222 3.68866 11.6367C3.72337 10.001 3.16798 8.33078 2.5 6.85864ZM5.32806 13.4964L7.30634 15.2351L8.98047 17.6977C8.52068 15.0547 7.33247 12.4289 5.41532 10.5176L5.32806 13.4964ZM18.5932 10.5176C16.6933 12.4203 15.4878 15.0547 15.028 17.6977L16.7021 15.2351L18.6804 13.4964L18.5932 10.5176Z" fill="white"/><path fill-rule="evenodd" clip-rule="evenodd" d="M11.9568 0.00562195C12.0868 -0.0200475 12.1821 0.0485596 12.2948 0.0829716C12.6768 0.203645 15.1914 1.4514 15.4525 1.66696C16.294 2.36432 17.1535 4.31017 17.995 5.03335C18.3855 5.36902 19.2874 5.66189 19.7818 5.89429V5.90269C19.8338 6.17798 19.7472 6.06638 19.6259 6.12634C18.9926 6.44487 18.2636 6.65156 17.6129 7.02174C14.9582 8.54557 13.1713 11.4988 12.1042 14.2623C11.8266 14.314 11.9387 14.2196 11.878 14.1076C11.3488 13.0832 10.9238 12.0329 10.3166 11.0515C8.87644 8.75286 6.91598 6.83276 4.22666 6.10952C4.1746 5.85985 4.26149 5.9371 4.3656 5.86822C4.81677 5.57562 5.62312 5.36881 6.01347 5.04176C6.855 4.30996 7.72314 2.37272 8.55601 1.67537C8.76725 1.51039 11.7747 0.022831 11.9568 0.00562195ZM12.1127 2.79441C11.8612 2.74277 11.9388 2.82902 11.8695 2.9323C11.6873 3.21641 10.3947 5.79965 10.386 5.96323L11.8958 9.22621C12.1472 9.27781 12.0696 9.19162 12.1389 9.08832C12.3213 8.80389 13.6138 6.22096 13.6224 6.05739L12.1127 2.79441Z" fill="white"/></svg>