<svg width="24" height="24" viewBox="0 0 24 24" fill="none" xmlns="http://www.w3.org/2000/svg"><path fill-rule="evenodd" clip-rule="evenodd" d="M17.1429 5.11111L18.8571 6.81482V10.2222L13.7143 13.6296H10.2857L5.14286 10.2222V6.81482L6.85714 5.11111V3.40741L12 0L17.1429 3.40741V5.11111ZM8.57143 6.81482L6.85714 8.51852L11.1429 10.6481L8.57143 6.81482ZM15.4286 6.81482L12.8571 10.6481L17.1429 8.51852L15.4286 6.81482ZM8.57143 15.3333L3.42857 11.9259V8.51852L0.857143 10.2222L0 15.3333L2.57143 17.8889H6L8.57143 15.3333ZM24 15.3333L23.1429 10.2222L20.5714 8.51852V11.9259L15.4286 15.3333L18 17.8889H21.4286L24 15.3333ZM12.0086 15.3333L8.15143 19.1667L12.0086 23L15.8657 19.1667L12.0086 15.3333Z" fill="white"/></svg>