<svg width="24" height="24" viewBox="0 0 24 24" fill="none" xmlns="http://www.w3.org/2000/svg"><path fill-rule="evenodd" clip-rule="evenodd" d="M16.1354 7.56348C15.5082 8.33038 12.5093 9.70008 12.5093 9.69547C12.5093 9.70008 9.24942 8.72498 8.45474 7.02255C8.18908 6.45124 7.91875 5.71406 8.64118 5.32704C9.37992 4.93081 9.69919 5.58966 9.9602 6.15176C10.2818 6.84287 11.0182 7.44412 11.8944 7.65606C11.8885 7.41671 11.8975 7.17902 11.9063 6.94453C11.9426 5.97838 11.9768 5.06649 10.9623 4.31572C10.2632 3.97016 10.0767 3.39423 10.3797 2.2424C10.6826 1.09056 12.5703 0.307301 14.2249 1.89685C14.6071 2.26544 15.5113 3.16387 15.8562 3.73979C16.2011 4.31572 16.6141 5.04972 16.6636 5.59728C16.7132 6.14485 16.7627 6.79658 16.1354 7.56348ZM13.7168 4.66819C13.3393 5.04138 13.3393 5.5605 13.3393 5.81657C13.3393 5.8872 13.3391 5.99835 13.3389 6.12868C13.3384 6.47084 13.3376 6.94517 13.3393 7.16538C13.3416 7.47408 13.4908 7.52706 13.7844 7.46025C14.8657 7.21376 15.4931 5.76371 15.0848 4.94463C14.7679 4.30881 14.4183 3.97478 13.7168 4.66819Z" fill="white"/><path d="M17.604 5.69792C17.604 5.69792 18.5851 5.58504 19.7223 6.45353L19.7177 6.45123C21.4212 7.75051 21.4352 10.3306 19.713 11.9824C18.4313 13.2126 17.4189 13.6309 15.1897 14.5418C14.2263 14.9354 13.2669 15.2276 12.32 15.516C11.0758 15.895 9.8532 16.2673 8.67147 16.8547C7.7999 17.2901 7.69969 18.4834 9.33098 18.4834L8.98142 20.4415C8.98142 20.4415 7.97468 20.377 7.49228 20.3125C5.02436 19.9877 3.92673 18.6032 4.50235 16.6635C4.63518 16.2212 4.90318 15.8341 5.71883 15.3734C6.06199 15.1796 6.94514 14.9078 8.01787 14.5778C9.49482 14.1233 11.3311 13.5583 12.6122 12.9338C12.7451 12.869 12.8784 12.8046 13.0118 12.7401C13.8886 12.316 14.7694 11.89 15.5765 11.3581C16.3945 10.819 16.6788 9.7409 16.3223 8.57754C16.3223 8.57754 17.604 7.88643 17.604 5.69792Z" fill="white"/><path d="M4.90318 12.0331C4.90318 12.0331 5.25274 11.1116 6.25716 10.4205V8.75262C7.59482 10.0842 7.69969 10.4205 7.69969 10.4205C6.88404 10.8812 5.6023 12.3786 5.6023 12.3786L6.65099 13.1849C7.13106 12.8071 8.80897 11.547 9.33098 11.2268V9.26864C8.02595 8.16517 7.00988 6.26002 7.46665 4.54608C5.71883 4.89163 4.4371 7.31051 4.4371 7.31051L3.62145 6.27385C3.62145 6.27385 2.22319 9.66256 3.62145 11.2268C4.20405 11.7359 4.90318 12.0331 4.90318 12.0331Z" fill="white"/><path d="M15.157 18.0226C15.9797 17.7301 17.9535 16.4723 16.0892 15.3734C17.837 14.6293 19.3518 15.4886 19.3518 16.8708C19.3518 18.253 18.3031 19.7504 14.691 20.5567C14.691 20.5567 15.0219 18.5156 15.157 18.0226Z" fill="white"/><path d="M10.2655 12.7219C10.2632 12.7242 13.0597 11.8027 14.1083 11.2268V10.0749C14.1083 10.0749 12.801 10.584 12.4771 10.766C12.4771 10.766 12.4607 10.8121 12.0716 10.6347C10.3074 9.83765 10.3377 9.84456 10.3377 9.84456C10.3377 9.90463 10.3166 10.716 10.2972 11.4619C10.2801 12.1177 10.2644 12.7229 10.2655 12.7219Z" fill="white"/><path d="M10.3797 16.986C10.7572 16.8363 12.1205 16.4562 12.519 16.3617L14.1084 15.8341C14.1084 15.8341 14.2575 16.9215 14.1084 18.253C13.6982 21.932 11.5449 23.3211 8.32424 22.9387C10.0301 21.9389 10.4682 18.9741 10.3797 16.986Z" fill="white"/></svg>