<svg width="24" height="24" viewBox="0 0 24 24" fill="none" xmlns="http://www.w3.org/2000/svg"><path d="M18.1071 4.91869V2.56665C19.6493 2.96152 21.2266 4.06028 21.9714 5.46808C23.6101 8.57552 21.0952 11.4426 19.106 13.6573C19.5266 14.6016 19.956 15.0994 19.8596 16.2068C19.7369 17.6318 18.5452 18.1125 19.3601 19.7864C19.4916 20.0525 19.7107 20.2757 19.8509 20.5332H18.0545L15.487 19.7263C15.3994 19.7864 15.0752 20.4559 15.0577 20.6019C14.8912 21.9496 17.2308 22.1384 17.2308 22.3015C16.0566 23.8037 13.1299 24.1728 11.316 23.9325C9.50211 23.6921 8.00369 21.7178 7.74081 20.0096C7.32896 20.1555 6.32125 20.5418 5.94446 20.5418H4.1481C4.2883 20.2842 4.51613 20.0696 4.63881 19.7949C5.45374 18.121 4.26202 17.6403 4.13934 16.2154C4.04295 15.108 4.48108 14.6101 4.89293 13.6659C2.91256 11.4426 0.388903 8.57552 2.02753 5.45949C2.77236 4.0517 4.34088 2.96152 5.89188 2.55806V4.91011C7.43411 2.78983 9.56345 1.15027 11.9557 0C14.3917 1.04726 16.5473 2.78983 18.1158 4.91869H18.1071ZM12.8757 10.258C14.3216 10.5069 15.8814 10.4812 17.0117 9.44252C17.2045 9.27083 17.8004 8.5326 17.7653 8.30083C17.6952 7.81154 16.6262 7.21923 16.1793 7.08189C14.2953 6.52392 13.419 7.73428 11.9732 8.52402C10.4222 7.3995 8.8712 6.18056 6.95217 7.49392C6.40888 7.86304 6.09342 8.21499 6.46145 8.79871C7.4604 10.3696 9.42325 10.5928 11.132 10.258C10.5273 12.3783 8.05627 12.1465 6.33001 11.6486C6.18981 11.786 7.33772 14.138 7.60061 14.4385C8.12637 14.5501 9.72994 13.1766 10.2031 12.8247C11.0005 15.0479 13.0072 15.0479 13.8046 12.8247C14.1989 13.1251 16.0566 14.6617 16.4685 14.4127L17.6777 11.6486C15.9515 12.1465 13.4804 12.3783 12.8757 10.258Z" fill="white"/></svg>