<svg width="24" height="24" viewBox="0 0 24 24" fill="none" xmlns="http://www.w3.org/2000/svg"><path d="M22.5 15.5264C19.9684 16.7234 19.1949 19.7546 19.0103 22.2949C18.6323 22.3466 18.3246 22.1055 18.0873 21.8558L17.1555 19.8235L14.7382 24L12.0483 23.1819L9.2882 24L6.87087 19.8235L5.9391 21.8558C5.70176 22.1055 5.3941 22.3466 5.01612 22.2949C4.84031 19.7029 4.0316 16.7492 1.5 15.4661L4.5766 4.24542C5.92152 1.42949 9.33215 1.10226 11.9604 0C14.703 1.06781 18.2719 1.47255 19.5289 4.46932L22.5 15.5264ZM17.261 9.42949L16.3204 6.96663L12.0396 9.40366L7.61804 7.00969L6.7478 9.42949C7.81143 9.41227 8.5586 10.3854 9.49037 10.7729C10.0178 10.9882 10.5892 11.057 11.1342 11.2034C11.055 11.9612 10.5716 12.7277 9.84198 13.0463C8.14546 13.7955 7.11699 12.4349 5.76329 11.6771L5.1216 13.8471L7.51256 17.8945L7.77627 17.7826L10.1409 14.5705L12.0396 16.1722L13.8064 14.5705C14.6239 15.4661 15.3799 16.9645 16.2237 17.7826C16.3116 17.8687 16.3204 17.9376 16.4874 17.8945L18.8784 13.8471L18.2367 11.6771C16.8918 12.4349 15.8633 13.7869 14.158 13.0463C13.4196 12.7191 12.9186 11.9268 12.8746 11.1432C13.4372 11.1001 13.9998 10.9795 14.5184 10.7643C15.4678 10.3767 16.1886 9.42088 17.261 9.42088V9.42949ZM12.9713 19.7374L13.8064 21.3218L15.1601 19.5307C15.1777 19.436 13.9646 18.1873 13.8152 18.1012C13.2614 17.7912 11.0902 18.1012 10.3254 18.0237L8.8311 19.4618L10.1409 21.3218L11.0287 19.7287H12.9625L12.9713 19.7374Z" fill="white"/></svg>