<svg width="24" height="24" viewBox="0 0 24 24" fill="none" xmlns="http://www.w3.org/2000/svg"><path d="M13.2354 0.486052C13.8042 1.06162 13.8127 1.998 13.4816 2.69384C17.3022 2.97733 21.6153 5.44285 22.7021 9.35158C23.4917 12.1779 22.5917 14.6005 21.4031 17.1347C21.2418 17.1776 21.2248 17.0917 21.1399 17.0316C20.9786 16.9199 19.688 15.4595 19.6116 15.5368C19.3314 17.066 18.8645 18.7068 18.1088 20.0641C17.956 20.3304 17.489 21.095 17.2853 21.2668C17.1834 21.3527 17.1154 21.4816 16.9626 21.3785L15.4853 19.8236C15.4853 20.906 12.8703 24.0759 11.9533 23.9986C11.758 23.9814 10.9854 23.4059 10.7901 23.2426C9.78826 22.4093 8.8713 21.0864 8.5147 19.8236L7.03738 21.3785C6.88455 21.4901 6.81663 21.3613 6.71474 21.2668C6.51097 21.095 6.044 20.3304 5.89118 20.0641C5.13553 18.7068 4.66856 17.066 4.38838 15.5368C4.31197 15.4595 3.02143 16.9199 2.86011 17.0316C2.76672 17.0917 2.75823 17.1776 2.59691 17.1347C1.40826 14.6005 0.50828 12.1779 1.29788 9.35158C2.38465 5.44285 6.70625 2.97733 10.5184 2.69384C9.82222 1.27639 10.7816 -0.235561 12.3608 0.0307484C12.5731 0.0651109 13.0825 0.340011 13.2269 0.486052H13.2354ZM14.008 4.61815C12.692 4.25734 11.2826 4.16284 9.98354 4.67828C10.5354 6.43936 13.541 6.43077 14.008 4.61815ZM18.7711 10.8206C18.5928 9.36018 18.1683 8.01145 17.2428 6.8603C17.056 6.63694 15.9353 5.51157 15.7485 5.4858C15.5702 5.46003 15.1712 6.27614 14.9759 6.4909C13.1165 8.55266 9.52506 7.99426 8.36188 5.47721C6.50248 6.62835 5.45817 8.64715 5.24591 10.8206C8.29395 10.0388 10.2552 13.3892 9.23638 16.0952C9.09205 16.4818 8.81187 16.7395 8.73545 17.1347C10.8411 18.2343 13.1844 18.2343 15.29 17.1347C15.2136 16.7395 14.9334 16.4818 14.7891 16.0952C13.7702 13.3892 15.74 10.0474 18.7796 10.8206H18.7711ZM5.95061 12.4442C5.82325 12.4614 5.49213 12.5645 5.45817 12.7019C5.73835 13.939 6.34966 15.1073 7.29209 15.9578C8.27697 14.8754 7.5468 12.2724 5.95061 12.4528V12.4442ZM17.7947 12.4442C16.3089 12.616 15.8164 14.8925 16.7079 15.9492C17.6249 15.1073 18.355 13.8874 18.5164 12.6332C18.3041 12.4872 18.0579 12.4098 17.7947 12.4442Z" fill="white"/></svg>