<svg width="24" height="24" viewBox="0 0 24 24" fill="none" xmlns="http://www.w3.org/2000/svg"><g clip-path="url(#clip0_5587_379)"><path d="M9.79458 8.79961C10.3542 6.94167 10.856 5.0547 11.4156 3.19677C11.4639 3.0226 11.3386 2.98431 11.6568 3.02299L13.9634 11.0743C16.5591 11.9066 19.2034 12.6033 21.8088 13.3871C21.9823 13.4354 22.0212 13.31 21.9826 13.6292L13.9536 15.942C13.1238 18.5451 12.4287 21.197 11.6471 23.8098C11.5992 23.9836 11.724 24.0223 11.4058 23.9836L9.10027 15.9323L1.08102 13.6195C1.05207 13.3098 1.08114 13.4257 1.25484 13.3774C1.79664 13.2126 6.84718 12.0427 6.84156 11.7519L0 4.8906V1.92858H2.94326L9.79458 8.79961Z" fill="white"/><path d="M21.0266 1.02944C22.6478 0.748794 24.2401 2.35493 23.9699 3.98071L18.2669 9.64213V6.74845H15.3823L21.0266 1.02944Z" fill="white"/></g><defs><clipPath id="clip0_5587_379"><rect width="24" height="24" fill="white"/></clipPath></defs></svg>