<svg width="24" height="24" viewBox="0 0 24 24" fill="none" xmlns="http://www.w3.org/2000/svg"><path d="M10.4615 12.2259V2.61313L12.5 1L14.5364 2.61313V12.2259L12.5 14.2701L10.4615 12.2259Z" fill="white"/><path d="M20.7424 7.5206L20.0499 10.39L20.0519 10.392L22 9.95679V13.608C22 13.608 21.0547 15.1056 18.8333 15.4356L18.3607 17.3912L19.8053 18.4783C19.8053 18.4783 16.9901 22.1749 12.5 23C8.00995 22.1728 5.19468 18.4783 5.19468 18.4783L6.6393 17.3912L6.16667 15.4356C3.94527 15.1056 3 13.608 3 13.608V9.95679L4.94809 10.39L4.25557 7.5206L8.82371 3.9086V12.9066L11.6801 15.7739V20.4669L12.5 21.2899L13.3199 20.4669V15.7739L16.1763 12.9066V3.9086L20.7424 7.5206Z" fill="white"/></svg>