<svg width="24" height="24" viewBox="0 0 24 24" fill="none" xmlns="http://www.w3.org/2000/svg"><path d="M7.71865 1.00856C6.86687 3.11347 5.52469 5.04725 4.93103 7.23772C4.67292 8.42708 5.64514 10.7801 6.80665 11.2336C6.94431 11.285 7.00453 11.2165 6.96152 11.0796C6.86687 10.7545 6.67759 10.4807 6.58295 10.0699C6.28182 8.68378 6.6948 6.27083 7.71865 5.22693C8.26929 4.6622 9.59427 4.14025 10.2309 3.56696L8.69948 8.4442C8.63925 8.61533 8.69948 8.70945 8.78551 8.84635C8.84574 8.94903 9.99864 10.0871 10.1277 10.1726C10.2137 10.2325 10.2395 10.3181 10.3944 10.2753L11.8915 7.89658L12.1152 7.82812L13.7241 10.224C13.8875 9.59077 14.507 8.45275 14.5414 7.86235C14.5931 7.07515 13.9134 4.96168 13.7671 3.99479C13.7499 3.875 13.638 3.63542 13.7671 3.56696C15.6169 5.88579 18.155 7.88802 17.0365 11.2336C17.157 11.362 17.8883 10.6689 18.0001 10.5406C20.7878 7.47731 17.3377 4.02046 16.288 1L23.1452 4.30283C23.1796 4.44829 23.171 4.43973 23.0764 4.5253C22.8355 4.75632 22.5859 4.81622 22.3709 5.18415C22.0009 5.83445 22.0525 6.22805 22.302 6.89546C22.672 7.88802 23.6958 9.2314 23.9539 10.1555C23.997 10.3095 24.0314 10.4379 23.9539 10.5833L21.5363 15.4862C21.261 15.5376 21.3728 15.4435 21.3126 15.3322C20.9942 14.7161 20.6157 13.4412 19.6349 13.8605C19.0842 14.1001 18.1034 15.7087 18.1034 16.282C18.1034 16.8211 18.9638 17.6853 18.8175 18.1473L14.6791 24L15.3244 17.3943L12.0377 19.7132L8.68227 17.3943L9.32755 24L5.18914 18.1473C5.04288 17.6767 5.90325 16.8125 5.90325 16.282C5.90325 15.7087 4.92242 14.1001 4.37178 13.8605C3.39956 13.4412 3.01239 14.7161 2.69405 15.3322C2.63382 15.4435 2.75428 15.5376 2.47035 15.4862L0.0182809 10.5149C-0.0247379 10.3951 0.0182809 10.2839 0.0440921 10.1641C0.293601 9.23995 1.32605 7.88802 1.69601 6.90402C1.94552 6.23661 1.99715 5.84301 1.62718 5.19271C1.41209 4.81622 1.16258 4.75632 0.921676 4.53385C0.835638 4.44829 0.827034 4.4654 0.852846 4.31138L7.71865 1.00856Z" fill="white"/></svg>