<svg width="24" height="24" viewBox="0 0 24 24" fill="none" xmlns="http://www.w3.org/2000/svg"><g clip-path="url(#clip0_5581_235)"><path d="M11.6989 0C12.0063 1.11004 12.9533 2.03132 13.8327 2.71973C16.5135 4.81939 20.1596 5.70547 23.4977 5.99805L21.2175 7.50391C18.8186 9.39704 17.231 12.0478 15.7712 14.6895C14.0124 14.1817 11.8869 13.4926 10.7428 12.0039H15.737L14.1403 10.292H16.5817V10.2832C15.7022 7.48666 11.451 7.62393 11.5876 4.28516C9.65822 4.99934 7.42981 6.55696 7.33561 8.8457C7.19048 12.348 11.9295 15.5321 14.8835 16.3926L11.6901 24L8.82194 18.1572C8.79633 17.9507 8.82184 18.0104 8.98405 17.9932C9.68409 17.916 10.6317 18.4758 11.2975 18.665C11.3915 18.691 11.5703 18.8449 11.485 18.5869C11.1177 17.5458 9.52167 16.3329 8.5485 15.8682C8.25826 15.7305 7.39619 15.5236 7.25944 15.3945C7.06308 15.2052 6.31124 13.6048 6.08073 13.209C5.86719 12.8389 4.86107 11.3856 4.80925 11.1611C4.73243 10.8514 5.02241 10.232 5.00554 9.80176C4.95432 8.51967 3.52016 8.04604 3.08464 9.3623C2.70045 10.5068 2.99073 11.6859 3.08464 12.8477C1.0954 11.075 -0.305072 7.82217 1.01823 5.25781C1.47067 4.38878 2.46086 3.537 3.45964 3.43359C3.64746 3.41638 3.9723 3.33932 3.93815 3.58887C3.89486 3.94261 3.11088 5.80619 3.19499 5.89453C6.32825 4.82748 10.1276 3.37277 11.485 0.0683594L11.6989 0Z" fill="white"/><path d="M10.0768 7.74512C11.3147 7.54733 12.6209 7.92537 13.2868 9.04395C12.0659 10.7392 9.31633 10.7739 8.19792 8.9668C8.65041 8.39025 9.3426 7.86559 10.0768 7.74512Z" fill="white"/></g><defs><clipPath id="clip0_5581_235"><rect width="24" height="24" fill="white"/></clipPath></defs></svg>