<svg width="24" height="24" viewBox="0 0 24 24" fill="none" xmlns="http://www.w3.org/2000/svg"><g clip-path="url(#clip0_5581_230)"><path d="M10.028 3.85205C11.3198 3.67659 12.6673 3.67659 13.9591 3.85205C14.0334 2.35602 15.2416 1.00776 16.5798 0.416734C20.3807 -1.26398 24.2374 2.4299 22.8435 6.29925C22.5182 7.20425 21.9048 7.66599 21.3565 8.39553C22.797 10.5749 24.7579 13.5485 23.6984 16.2358C22.3044 19.7542 16.5147 23.7344 12.751 23.9837C8.33665 24.27 2.70493 20.7331 0.632529 16.9284C-1.04026 13.844 0.9485 10.9905 2.62129 8.39553C2.04511 7.63828 1.43175 7.15808 1.10649 6.21614C-0.268919 2.15286 3.9874 -1.45791 7.78835 0.610663C8.94072 1.23862 9.96298 2.49454 10.028 3.85205ZM5.3721 7.43512C5.04683 7.49053 4.61005 7.97073 4.59146 8.28471C4.545 8.98655 6.6081 10.3348 6.55234 10.6765C6.06909 11.4707 4.03387 12.4496 4.8238 13.4562C5.84606 14.749 6.97054 12.2926 7.87199 11.914C8.67121 12.3942 9.6563 14.4166 10.6693 13.6316C11.9703 12.6158 9.49831 11.4984 9.11729 10.6026C9.60054 9.80844 11.6358 8.82956 10.8458 7.82298C9.82358 6.53012 8.69909 8.98655 7.79764 9.36518C7.17499 8.96808 6.11556 7.30583 5.38139 7.43512H5.3721ZM15.7806 7.44435C10.883 8.03538 13.0298 15.6725 17.5928 13.4931C20.8175 11.9509 19.3027 7.01956 15.7806 7.44435ZM9.21951 15.1184C7.81623 15.2754 4.13609 16.6698 4.90743 18.5352C5.10259 19.0155 7.28651 20.5946 7.83482 20.9086C10.818 22.6539 13.8662 22.4138 16.7006 20.5392C17.1838 20.216 18.9682 18.9139 19.1076 18.4521C19.6652 16.6791 16.3103 15.2846 14.9256 15.1184C14.6189 15.0815 14.7862 15.811 14.749 16.0788C14.2936 19.0062 8.51322 18.4891 9.20093 15.1092L9.21951 15.1184Z" fill="white"/></g><defs><clipPath id="clip0_5581_230"><rect width="24" height="24" fill="white"/></clipPath></defs></svg>