<svg width="24" height="24" viewBox="0 0 24 24" fill="none" xmlns="http://www.w3.org/2000/svg"><path d="M4.79814 12.8615L1.90341 11.3625C1.21043 10.7595 1.57885 9.45872 1.79814 8.6748L4.79814 10.0704C4.342 9.30366 2.91218 8.0201 2.94727 7.13281C2.98235 6.33166 4.47358 4.95334 4.95604 4.28141L8.45604 12.0086C6.54376 12.9304 7.0613 14.7308 8.66657 15.6353C9.42095 15.0323 9.94727 14.1106 10.1929 13.1888C10.5174 11.9914 10.4297 11.2678 10.1929 10.079C9.75428 7.85642 8.9385 5.63388 8.51744 3.39411L12.0438 0L15.4999 3.48026L13.6402 11.0955C13.4911 12.7839 14.0438 14.5068 15.3332 15.6439C16.8946 14.705 17.456 12.9218 15.5438 12L19.0438 4.27279C19.5701 5.02225 21.0438 6.30581 21.0438 7.21895C21.0438 8.06317 19.5964 9.28643 19.2104 10.0617L22.2718 8.66619C22.3157 9.48457 22.8332 10.6131 22.1578 11.285L19.2192 12.8528H21.842C20.9385 14.7566 18.7455 15.8421 17.2543 17.3065L18.9911 18.8227L17.2894 20.5714L15.228 18.9777L13.9736 20.0976L15.4999 21.4932L12.0438 23.9914L8.50867 21.4932L10.035 20.0976L8.83323 19.0208L6.7192 20.58C6.60516 20.5628 5.11393 19.0811 5.0613 18.9777C4.98236 18.8313 5.03499 18.8227 5.11393 18.7021C5.29814 18.4436 6.75428 17.5047 6.75428 17.3151C5.20165 15.8507 3.14902 14.7308 2.0613 12.8615H4.78937H4.79814ZM11.9736 16.4192L10.8157 17.3238L12.0525 18.435L13.2104 17.3238L11.9736 16.4279V16.4192Z" fill="white"/></svg>