<svg width="24" height="24" viewBox="0 0 24 24" fill="none" xmlns="http://www.w3.org/2000/svg"><path d="M6.87158 22.9915L2.59879 19.6631C2.55589 19.4508 2.65027 19.5357 2.73607 19.4848C2.95057 19.3574 4.29761 18.78 4.31477 18.6951C4.34051 15.6893 2.61595 15.0695 0.0334031 16.2242C0.0505629 14.9761 0.513877 13.5666 1.64642 12.8873C1.41477 12.3694 0.994351 11.9703 0.728374 11.4693C-1.4166 7.39367 1.42335 2.70668 6.01359 2.6897L4.41773 4.01428C3.38814 5.38132 3.28518 7.088 3.73992 8.69278L4.30619 10.0853C5.2414 6.0521 8.0556 2.56233 11.9509 1C15.8976 2.45195 18.7547 6.06909 19.6899 10.0938L20.2562 8.70127C20.7195 7.09649 20.6166 5.38981 19.5784 4.02277L17.9825 2.69819C22.5728 2.71517 25.4127 7.40216 23.2763 11.4778C23.0103 11.9788 22.5899 12.3778 22.3583 12.8958C23.4822 13.5751 23.9541 14.9846 23.9713 16.2327C21.3888 15.0695 19.6642 15.6978 19.6899 18.7036C19.7071 18.7885 21.0541 19.3659 21.2686 19.4932C21.3544 19.5442 21.4488 19.4593 21.4059 19.6716L17.1331 23V16.3431C15.9577 16.3771 14.8166 17.3875 14.0873 18.2451C13.1435 19.3489 12.5515 20.7074 12.0538 22.049L10.9556 19.7565C10.0633 18.2875 8.71625 16.5129 6.88016 16.3346V22.9915H6.87158ZM10.1834 14.4242C9.92602 13.4137 7.94406 11.2486 6.92305 11.2486C6.70856 11.2486 5.31004 11.9193 5.27572 12.0552L6.03933 13.66L10.1834 14.4242ZM17.9568 13.66L18.7204 12.0552C18.6775 11.8854 17.2361 11.2231 16.9787 11.2486C15.9491 11.3504 14.1044 13.4052 13.8213 14.4157L17.9654 13.6515L17.9568 13.66Z" fill="white"/></svg>