<svg width="24" height="24" viewBox="0 0 24 24" fill="none" xmlns="http://www.w3.org/2000/svg"><path d="M5.80859 7.13007L7.47219 8.90976L9.8796 6.49263L8.73979 5.34824H4.62477L5.7541 3.22356L7.34436 3.60854V4.33636H9.05619V2.51673L3.5981 1L1 5.44922L2.64267 8.489L5.80859 7.13007Z" fill="white"/><path d="M16.5278 8.90976L14.1204 6.49263L15.2602 5.34824H19.3752L18.2459 3.22356L16.6556 3.60854V4.33636H14.9438V2.51673L20.4019 1L23 5.44922L21.3573 8.489L18.1914 7.13007L16.5278 8.90976Z" fill="white"/><path d="M12.0001 23L9.94674 18.008L12.0001 15.9465L14.0534 18.008L12.0001 23Z" fill="white"/><path d="M12 6.49054L15.5012 10.0057L13.3661 12.2882L14.9375 13.7902V16.891L12 13.7502L9.06248 16.891V13.7902L10.6339 12.2882L8.49886 10.0057L12 6.49054Z" fill="white"/><path d="M18.57 8.923L22.6312 10.6642L20.184 15.8119L19.4548 16.4576V12.1852H18.975L17.1836 20.6734L16.4398 21.3192V11.2027L18.57 8.923Z" fill="white"/><path d="M1.36673 10.6642H1.36461L5.42728 8.92238L7.55813 11.2027V21.3192L6.81432 20.6734L5.02289 12.1852H4.54308V16.4576L3.81395 15.8119L1.36673 10.6642Z" fill="white"/></svg>