<svg width="24" height="24" viewBox="0 0 24 24" fill="none" xmlns="http://www.w3.org/2000/svg"><path d="M21.1797 10.0804L21.2257 11.9312C22.1045 12.6863 23.0845 13.5799 23.5655 14.648C24.768 17.3002 23.3068 21.1213 21.2348 23L16.6095 21.2877C16.48 20.1366 17.1556 19.0037 17.8679 18.1473C18.2379 17.6961 18.9592 17.2166 19.1904 16.7102C19.7543 15.4672 18.4321 14.3074 17.2482 15.0069C17.0355 15.1357 16.6562 15.6783 16.4803 15.6328L12.9643 13.0365C12.8628 12.9169 12.9642 12.8338 13.0014 12.7235C13.1401 12.3553 14.8319 10.2201 14.7043 10.0525L4.62977 3.84544C4.46409 3.5501 6.24897 1.52481 6.35071 1L21.1797 10.0804Z" fill="white"/><path d="M10.2632 9.40772L9.23701 10.0984L11.0682 12.9537L7.51607 15.6148C7.34029 15.6607 6.96094 15.1179 6.7482 14.9889C6.03592 14.5653 5.16672 14.7768 4.80593 15.5411C4.2417 16.7565 5.47163 17.3365 6.12848 18.1284C6.84072 18.9848 7.51627 20.1178 7.38688 21.2688L7.36791 21.2778L3.01092 22.9631C2.50232 23.0735 2.04921 22.2825 1.76245 21.8956C-0.65196 18.608 -0.827649 14.4271 2.76158 11.9222L2.80766 10.0705L7.09961 7.44631L10.2632 9.40772Z" fill="white"/></svg>