<svg width="24" height="24" viewBox="0 0 24 24" fill="none" xmlns="http://www.w3.org/2000/svg"><path d="M10.6998 21.1462C10.5615 19.2883 13.1536 19.2366 13.2918 20.8279C13.3868 21.8772 12.3847 23.004 12.0996 23.9846C11.849 24.0362 11.9265 23.95 11.8574 23.8468C11.5464 23.3651 10.7345 21.6797 10.6998 21.1462Z" fill="white"/><path d="M7.1137 18.5397C8.50473 17.8344 9.79204 19.4254 8.72954 20.6296C8.58265 20.793 6.37911 22.3931 6.29271 22.2727C6.30997 21.3608 6.18072 19.0129 7.1137 18.5397Z" fill="white"/><path d="M15.2612 20.6296C14.3113 19.5459 15.1754 18.1011 16.6526 18.4364C17.8362 18.7116 17.6808 21.3435 17.698 22.2727C17.6116 22.3931 15.4081 20.793 15.2612 20.6296Z" fill="white"/><path d="M11.8574 8.69905C11.9262 8.59597 11.8493 8.51057 12.0996 8.56213L13.2834 11.1771C13.2735 11.3341 12.2804 13.3268 12.1249 13.5677C12.0558 13.6709 12.1338 13.757 11.8836 13.7055L10.6998 11.0905C10.7092 10.9343 11.702 8.9398 11.8574 8.69905Z" fill="white"/><path fill-rule="evenodd" clip-rule="evenodd" d="M8.65191 4.41587C7.5978 -1.48485 16.4109 -1.45905 15.3481 4.41587C16.0825 5.01797 16.722 5.73215 17.18 6.55788C18.1994 8.39017 18.122 12.6988 21.3533 10.2732C22.0963 13.2236 19.9012 14.6602 17.3782 13.0603C16.7475 14.9441 15.1922 16.7508 13.6023 17.9206C13.3512 18.1102 12.2805 18.8232 12.0473 18.8404C11.3127 18.8917 8.82505 16.5789 8.28908 15.9508C7.6065 15.1508 6.93199 14.0667 6.62094 13.0603C4.09807 14.6686 1.90371 13.2235 2.64675 10.2732C5.87811 12.6988 5.80062 8.39873 6.82007 6.55788C7.278 5.72352 7.91749 5.00938 8.65191 4.41587ZM8.11611 12.0456C8.71231 14.0325 10.2247 15.7011 11.9528 16.7849C13.7411 15.8043 15.2614 14.0238 15.8662 12.0456C14.5443 10.4802 13.05 9.00917 12.0996 7.16856L8.11611 12.0456Z" fill="white"/><path d="M4.70303 15.4947C5.92131 14.9958 7.09693 16.3037 6.33659 17.4477C5.68855 18.4195 3.54571 18.0841 2.52609 17.9895V17.9802C2.39702 17.8765 4.37437 15.6242 4.70303 15.4947Z" fill="white"/><path d="M17.655 17.4384C16.8949 16.3031 18.0696 14.9962 19.2877 15.4863C19.6159 15.6238 21.593 17.8666 21.4655 17.9718V17.9802C20.4373 18.0749 18.2944 18.4104 17.655 17.4384Z" fill="white"/></svg>