<svg width="24" height="24" viewBox="0 0 24 24" fill="none" xmlns="http://www.w3.org/2000/svg"><path d="M10.2514 7.77331C10.147 7.29986 8.50275 5.51793 8.53755 5.11334L11.9304 0L15.4277 5.10473C15.4625 5.46628 13.7138 7.51507 13.7138 7.76471V9.95983L18.0288 8.54806C18.3333 7.1363 17.6548 6.3099 17.185 5.08752L18.8118 1.70445L19.038 1.77331L21.5 5.09613C20.0037 7.76471 19.8036 10.4505 20.8997 13.3085C21.0302 13.6356 21.5522 14.4275 21.4826 14.6772L18.9858 18L18.8292 19.8766L15.6277 23.8881L15.3146 24L8.43315 23.9397L5.17079 19.8766L5.01419 18L2.5 14.5997C4.18773 11.5696 4.24863 8.11765 2.5 5.09613L4.9446 1.71306L5.16209 1.78192L6.78022 5.10473C6.31044 6.31851 5.63187 7.15351 5.93636 8.56528L10.2514 9.97705C10.1557 9.34864 10.3819 8.35868 10.2514 7.78192V7.77331ZM6.78022 12.4304V16.2353L9.39881 22.2697L14.5925 22.2181L17.185 16.2267V12.4218L13.7399 13.7217L13.6964 17.165L11.9478 18.8436L10.2775 17.165L10.234 13.7217L6.78892 12.4218L6.78022 12.4304Z" fill="white"/></svg>