<svg width="24" height="24" viewBox="0 0 24 24" fill="none" xmlns="http://www.w3.org/2000/svg"><path d="M8.97028 1.71306L10.775 0L10.3348 2.35868C15.0184 0.120517 19.7547 3.97704 21.9028 7.82496C22.4487 8.80631 23.0649 10.0201 22.9945 11.1478L19.5434 8.6858V12.0086L17.7387 10.2956C15.7051 12.6628 13.3721 15.9254 14.8247 19.1449C14.9391 19.2482 15.0272 19.1449 15.124 19.1105C15.9252 18.8522 16.8495 18.241 17.6243 18.0172C17.7739 17.9742 17.8179 18.0258 17.7827 18.1722L14.3669 24H8.97908L3.04543 20.6858C2.85175 20.5481 2.80773 20.3156 2.77252 20.1004C2.45559 18.2152 2.07703 15.2195 2.0066 13.3429C2.0066 13.1707 1.98019 12.9986 2.03301 12.835L8.0371 5.14778H4.63889L8.14274 3.38307L6.39081 1.72166H8.97028V1.71306ZM15.1592 5.25108C14.7367 4.54519 13.9003 2.81492 12.8527 3.69297C12.3421 4.11478 12.4389 4.93257 13.0464 5.22525C13.6538 5.51793 14.5166 5.31133 15.1592 5.25108ZM9.90347 16.2956V21.2281L12.3069 20.1951C10.4141 15.8565 13.0023 11.6557 15.8195 8.41894L14.2437 6.98135C14.0236 7.01578 12.254 9.03874 11.8227 9.33142C11.7258 9.39168 11.717 9.47776 11.5497 9.43472L10.731 6.97274L4.80616 12.7661V13.1966L7.3328 18.7661L9.91227 16.3042L9.90347 16.2956Z" fill="white"/></svg>