<svg width="24" height="24" viewBox="0 0 24 24" fill="none" xmlns="http://www.w3.org/2000/svg"><path fill-rule="evenodd" clip-rule="evenodd" d="M12 24L7.45455 18.5868C6.06061 18.1056 3.01818 16.3132 2 12.9931C4.78788 13.0533 10.3636 12.1631 10.3636 8.12125C10.4242 7.03861 9.6 4.90942 5.81818 5.05377C5.87879 3.48995 7.05178 -0.0820719 12 0.00143943C16.9482 0.0849507 18.1212 3.48995 18.1818 5.05377C14.4 4.90942 13.5758 7.03861 13.6364 8.12125C13.6364 12.1631 19.2121 13.0533 22 12.9931C20.9818 16.3132 17.9394 18.1056 16.5455 18.5868L12 24ZM12 6.28957C11.6309 5.39281 10.4346 3.57657 8.60194 3.48563C8.78011 2.96778 9.60617 1.78053 12 1.78053C14.3938 1.78053 15.2199 2.96778 15.3981 3.48563C13.5654 3.57657 12.3691 5.39281 12 6.28957ZM10.5455 15.5193L12 13.8953L13.4545 15.5193L16.1818 12.8127L17.8182 13.8953L13.8182 18.9477C13.6364 18.5868 13.0182 17.865 12 17.865C10.9818 17.865 10.3636 18.5868 10.1818 18.9477L6.18182 13.8953L7.81818 12.8127L10.5455 15.5193Z" fill="white"/></svg>