<svg width="24" height="24" viewBox="0 0 24 24" fill="none" xmlns="http://www.w3.org/2000/svg"><path d="M3.05333 11.9517C3.05333 7.02737 7.06128 3.03974 12 3.03974C16.9387 3.03974 20.9467 7.02737 20.9467 11.9517C20.9467 14.26 20.067 16.361 18.6222 17.9442L20.1435 19.3141C21.9177 17.3699 23 14.7853 23 11.9517C23 5.90561 18.0775 1 12 1C5.92248 1 1 5.90561 1 11.9517C1 14.7853 2.08226 17.3699 3.8565 19.3141L5.37778 17.9442C3.93298 16.361 3.05333 14.26 3.05333 11.9517Z" fill="white"/><path d="M12 5.51656L6.36105 14.8411C5.68229 13.5978 4.79466 10.7957 6.67432 8.38563C8.55397 5.97561 10.277 5.51656 12 5.51656Z" fill="white"/><path d="M12 5.51656C13.6447 5.51656 15.2894 5.97561 17.0836 8.38563C18.8778 10.7957 18.0305 13.5978 17.3826 14.8411L12 5.51656Z" fill="white"/><path d="M12 23C14.268 23 16.1067 21.1736 16.1067 18.9205C16.1067 16.6675 12 10.4702 12 10.4702C12 10.4702 7.89333 16.6675 7.89333 18.9205C7.89333 21.1736 9.73195 23 12 23Z" fill="white"/></svg>