<svg width="24" height="24" viewBox="0 0 24 24" fill="none" xmlns="http://www.w3.org/2000/svg"><path fill-rule="evenodd" clip-rule="evenodd" d="M23 2.23756H22.9914L16.4739 13.6425C16.2931 13.6236 16.2927 13.4724 16.2451 13.3402C16.0739 12.8678 15.5514 10.1078 15.4081 9.99876C12.6108 12.3496 12.5822 15.9935 15.4081 18.3444C13.0487 18.5804 10.9269 17.1267 9.95626 15.0593C9.72791 15.0593 9.84199 15.55 9.8515 15.6917C10.0323 17.2777 10.6977 18.9394 11.611 20.2328L8.56658 18.8447L6.98769 17.6461C7.43496 19.7513 8.75705 21.555 10.2983 22.9994L11.6014 24C8.08108 23.3579 3.87628 20.997 1.71653 18.108C-1.30911 14.0294 0.00358825 9.7053 3.02925 6.11763C4.04731 8.05309 4.86603 10.2157 6.99731 7.81762C8.65282 5.9577 10.0886 3.47392 11.5063 1.41577C12.0771 2.20879 12.3154 3.276 12.8767 4.1068C14.1326 5.98552 15.3794 4.99481 16.5401 3.64482C17.4916 2.54021 18.0717 1.18014 18.909 0L23 2.23756ZM7.7007 10.9334C5.14137 11.0845 3.48637 13.048 4.98014 15.4649C7.32003 15.3513 6.67352 12.3779 7.7007 10.9334Z" fill="white"/></svg>