<svg width="24" height="24" viewBox="0 0 24 24" fill="none" xmlns="http://www.w3.org/2000/svg"><path d="M20.093 12.3749C19.8348 12.7195 19.3229 12.7126 19.0969 12.3451H19.0946C17.2544 9.36121 13.0461 6.42092 8.54025 6.43011C6.79695 6.36581 5.10668 6.82753 3.66545 7.70731C3.16737 7.93239 2.67622 7.58093 2.95524 7.08939C3.75306 5.69505 6.02213 4.65217 7.66396 4.18359C8.64401 3.90335 9.61943 3.74482 10.5695 3.69428C10.8508 3.67822 10.8992 3.28542 10.6341 3.19582C9.58252 2.84208 8.47105 2.68588 7.35959 2.74562C6.77155 2.77777 6.64244 1.92553 7.2189 1.80382C9.40726 1.33747 11.9876 1.59709 14.4688 2.69965C14.8816 2.88343 15.2782 3.08559 15.6587 3.30147C15.9146 3.44853 16.1753 3.1246 15.9769 2.90867C15.2021 2.07487 14.2682 1.39492 13.2306 0.912519C12.7025 0.666769 13 -0.132637 13.5626 0.0189717C19.987 1.73947 23.0516 8.43318 20.093 12.3749Z" fill="white"/><path d="M5.08597 16.8726C5.00295 13.6223 7.03914 10.8084 9.9423 9.74252C10.2882 9.61614 10.2905 9.12688 9.95153 8.98674C8.03991 8.20114 6.04527 8.22415 4.47259 9.23944C1.4956 11.1621 1.15895 15.9148 3.72316 19.8543C4.97761 21.7815 6.69551 23.1574 8.4688 23.8328C8.93002 24.0074 9.24591 23.3481 8.81702 23.1023C6.64248 21.8596 5.15287 19.5487 5.08597 16.8703V16.8726Z" fill="white"/><path d="M18.9747 19.7371C16.3182 21.9101 12.7279 22.1306 10.0599 20.5411C9.74164 20.3527 9.27818 20.6835 9.42575 21.0235C11.0561 24.7746 16.0369 24.7171 19.1407 22.3144C21.9355 20.1529 23.7572 15.7884 22.6919 12.5656C22.5374 12.0947 21.811 12.2693 21.871 12.7632C22.1707 15.2784 21.163 17.9476 18.9747 19.7371Z" fill="white"/></svg>