<svg width="24" height="24" viewBox="0 0 24 24" fill="none" xmlns="http://www.w3.org/2000/svg"><path d="M8.94646 8.96196C5.53664 2.36885 7.86194 -0.489486 15.1726 1.75645L17.1529 2.70937C16.4986 2.76889 15.6979 2.62435 15.0607 2.70937C12.5722 3.04116 14.2941 5.18485 15.2155 6.15469C16.6793 7.686 18.6081 8.95366 20.3131 10.2298L20.7436 9.48952C21.5014 9.99996 22.6469 10.3572 23.2067 11.0888C23.4564 11.4122 24.2652 13.0795 23.9122 13.3602C23.5846 13.6238 22.1642 13.7683 21.7166 13.7258C20.7006 13.6321 20.0289 12.8502 19.0904 12.561L19.3662 11.7185C16.6796 10.2128 14.0103 8.50249 12.1848 5.98438L11.0479 3.77279C10.5056 7.50738 13.0374 10.8163 15.0178 13.7258L16.5155 12.816C17.6004 14.5089 19.3229 16.1335 19.5125 18.2262C19.6589 19.7915 19.4176 21.5359 18.8751 22.9991C17.1789 23.0246 15.1297 22.4886 13.6917 21.5444C12.1075 20.5066 11.2375 18.5161 10.101 17.0614L11.47 16.1085C10.4367 15.1131 9.51522 13.9726 8.74885 12.7645C7.98248 11.5565 6.89701 9.52303 6.54398 8.1619C6.5268 8.10224 6.51022 7.99206 6.59612 8.00903C7.57773 8.94481 8.47316 9.99123 9.61835 10.7399C9.76474 10.8334 9.88553 11.004 10.075 10.97C9.77359 10.2724 9.29951 9.63404 8.94646 8.96196Z" fill="white"/><path d="M6.75925 2.81987C6.34596 3.73855 5.8728 4.64036 5.55422 5.59307C4.59845 8.43442 4.27987 11.5905 4.29706 14.5765H5.15816V17.2741C5.15741 17.3608 4.91645 17.997 4.85627 18.1415C4.43432 19.2048 3.51305 20.1149 2.62617 20.8125C1.67906 20.2509 0.723392 19.1622 0.318706 18.1415C0.258522 17.997 0.0175625 17.3607 0.0168182 17.2741V14.5765H0.861094C0.895655 10.0763 3.16016 5.54218 6.75925 2.81987Z" fill="white"/><path d="M0.0168182 14.5765H0L0.0168182 14.5682V14.5765Z" fill="white"/></svg>