<svg width="24" height="24" viewBox="0 0 24 24" fill="none" xmlns="http://www.w3.org/2000/svg"><path d="M7.90944 8.64543L9.38762 7.84935H9.3897V5.38682L11.1899 3.68321V11.5205L6.9928 9.98192L9.00361 12.8508L11.1899 12.3042V23L9.3897 20.9953V15.4391L5.51051 11.5638V14.1893L7.79383 16.4703V18.7163L3.28498 14.212C1.61069 12.5393 0.917012 10.4604 1.00785 8.44951H1.63751C2.4654 8.44951 3.13429 7.83902 3.13429 7.08624C3.13429 6.33345 2.46332 5.72296 1.63751 5.72296H1.62722C2.75646 3.05626 5.33295 1 8.76208 1L9.00361 1.00413L5.50843 4.49788V6.24681L7.90944 8.64543Z" fill="white"/><path d="M22.3607 5.72296C21.5344 5.72296 20.8664 6.33122 20.864 7.08211C20.8664 7.833 21.5364 8.44126 22.3607 8.44126H22.9925C23.0812 10.4521 22.3896 12.5311 20.7153 14.2037L16.2065 18.7081V16.4621L18.4898 14.181V11.5555L14.6106 15.4309V20.987L12.8104 22.9917V12.3022L14.9967 12.8487L17.0075 9.97985L12.8104 11.5184V3.68118L14.6106 5.38475V7.84728L16.0888 8.6434L18.4898 6.24478V4.49585L14.9946 1.00413L15.2362 1C18.6653 1 21.2418 3.05626 22.371 5.72296H22.3607Z" fill="white"/></svg>