<svg width="24" height="24" viewBox="0 0 24 24" fill="none" xmlns="http://www.w3.org/2000/svg"><path d="M23 11.8256C22.1388 11.7023 21.3761 11.0961 21.089 10.1986C20.7537 9.15002 21.1707 8.03983 22.0361 7.46345C21.682 6.67228 21.2398 5.93003 20.7202 5.25156L17.9228 8.09302C18.6625 9.21385 19.092 10.5623 19.092 12.0128C19.092 13.9035 18.3586 15.6178 17.1663 16.8853V12.4466L15.0981 10.3474V8.81187C15.2825 8.66937 15.4585 8.51413 15.6262 8.34609C17.621 6.32132 17.621 3.02474 15.6262 1L14.1636 2.48455C15.3538 3.69257 15.3538 5.65354 14.1636 6.86157C13.8325 7.1976 13.4427 7.4358 13.0299 7.58466V23C13.8932 22.9277 14.7293 22.7554 15.5235 22.4896C15.2741 21.5602 15.5948 20.5286 16.4099 19.9288C17.357 19.2291 18.6436 19.3546 19.4504 20.167C20.0287 19.6311 20.5504 19.0313 21.003 18.3805C20.3095 17.7701 20.0035 16.7769 20.3053 15.8347C20.6552 14.7436 21.705 14.0821 22.7863 14.197C22.9266 13.4909 23 12.7614 23 12.0128C23 11.9937 22.9996 11.9748 22.9991 11.9561C22.9979 11.9121 22.9958 11.8688 22.9958 11.8256H23Z" fill="white"/><path d="M12.0094 6.28943C12.8878 6.28943 13.5998 5.5667 13.5998 4.67516C13.5998 3.78365 12.8878 3.06092 12.0094 3.06092C11.131 3.06092 10.4189 3.78365 10.4189 4.67516C10.4189 5.5667 11.131 6.28943 12.0094 6.28943Z" fill="white"/><path d="M9.85321 6.86366C10.1801 7.1976 10.5657 7.4358 10.9743 7.58466H10.9701V23C10.1068 22.9277 9.27067 22.7533 8.47651 22.4895C8.72585 21.5601 8.40525 20.5286 7.59015 19.9288C6.64303 19.2312 5.35432 19.3567 4.54969 20.167C3.97132 19.6311 3.45166 19.0313 2.99695 18.3805C3.69052 17.7701 3.99648 16.7769 3.69473 15.8347C3.34689 14.7436 2.29496 14.0821 1.21374 14.197C1.07334 13.4909 1 12.7614 1 12.0128C1 11.9511 1.00419 11.8873 1.00419 11.8256C1.8675 11.7001 2.62816 11.0961 2.91522 10.1986C3.25051 9.15002 2.83353 8.03983 1.9681 7.46345C2.32221 6.67013 2.76435 5.93 3.28401 5.25156L6.08143 8.09302C5.34384 9.21597 4.91218 10.5623 4.91218 12.0128C4.91218 13.9035 5.64559 15.6199 6.83787 16.8853V12.4466L8.90609 10.3474V8.80335C8.72585 8.6651 8.55403 8.51413 8.3906 8.34821C7.42458 7.36773 6.89236 6.06184 6.89236 4.67513C6.89236 3.28848 7.42458 1.98259 8.3906 1.00212L9.85321 2.48666C8.66302 3.69469 8.66302 5.65563 9.85321 6.86366Z" fill="white"/></svg>