<svg width="24" height="24" viewBox="0 0 24 24" fill="none" xmlns="http://www.w3.org/2000/svg"><g clip-path="url(#clip0_5589_108)"><path d="M16.2552 22.3641L14.5805 24H9.38546L7.7108 22.3641L10.2358 20.6079L11.9448 22.1917L13.731 20.6079L16.2552 22.3641Z" fill="white"/><path d="M3.37447 12.878C3.34017 15.7014 3.9326 18.568 5.99337 20.5995C2.9279 20.3153 1.02131 18.0681 0.3086 15.2016C0.222655 14.8656 0 13.9621 0 13.6867V11.1647H0.00838586L3.37447 12.878Z" fill="white"/><path d="M23.9576 11.1563C24.2924 15.2797 22.6782 20.1521 17.9726 20.5911C19.9304 18.5509 20.4455 15.6062 20.5915 12.8687L23.9576 11.1563Z" fill="white"/><path fill-rule="evenodd" clip-rule="evenodd" d="M5.99337 0.00823725C7.95117 -0.0864523 10.2267 0.627912 11.1113 2.53023C9.39376 3.68379 5.264 5.96529 7.54811 8.36698C8.82759 6.81748 10.3388 5.49179 11.9532 4.31245C13.6362 5.42291 15.1219 6.82612 16.4271 8.36698C18.7112 5.96523 14.5719 3.68376 12.8631 2.53023C13.7389 0.636402 16.0061 -0.0606135 17.9726 0.00823725L17.1659 2.58236C19.759 3.7703 22.155 5.44841 23.9668 7.66923L18.0925 10.6309C18.0925 11.1388 18.4281 11.5437 18.5655 12.0171C19.0548 13.7043 18.8911 15.6069 17.981 17.1133L16.2811 17.1822L15.414 19.584C15.2938 19.6959 15.2248 19.5749 15.139 19.5319C14.8128 19.3856 13.6973 18.4222 13.4476 18.4642L11.9532 19.8337L10.4588 18.4642L8.62989 19.6269L7.70241 17.173L6.0026 17.104C5.09241 15.6062 4.92865 13.6951 5.4181 12.0079C5.55552 11.5346 5.88154 11.1388 5.89023 10.6225L0.00838586 7.67847C1.82027 5.46611 4.21621 3.77872 6.80093 2.59076L5.99337 0.00823725ZM9.13639 15.4513C10.8023 15.2963 10.5359 12.6191 8.74981 12.9032C7.21298 13.153 7.47064 15.6061 9.13639 15.4513ZM15.1214 15.4513C16.7872 15.2963 16.5214 12.6196 14.7356 12.9032C13.1986 13.1528 13.4558 15.6059 15.1214 15.4513ZM12.7775 11.7927C14.4603 10.9662 13.6017 8.3412 11.7469 8.61666C9.231 8.9869 10.3302 12.9979 12.7775 11.7927Z" fill="white"/></g><defs><clipPath id="clip0_5589_108"><rect width="24" height="24" fill="white"/></clipPath></defs></svg>