<svg width="24" height="24" viewBox="0 0 24 24" fill="none" xmlns="http://www.w3.org/2000/svg"><g clip-path="url(#clip0_5589_123)"><path d="M6.73909 14.7824C8.82449 14.257 10.9617 14.6018 12.5903 16.0662C12.8149 16.2735 14.02 17.5556 13.8224 17.7798L13.8139 17.7891C11.7803 18.3059 9.69467 17.9784 8.07462 16.6088C7.8161 16.3934 6.52374 15.0409 6.73909 14.7824Z" fill="white"/><path d="M8.23872 7.32226C9.20375 7.64962 10.0567 8.26132 10.6943 9.04514C11.9611 10.6216 11.763 12.5257 14.0294 13.3355C14.3397 13.4475 15.4076 13.7139 15.6923 13.7141H17.7869C17.8635 13.7847 17.1146 15.4285 16.8561 15.5236C14.1934 15.5408 11.2974 14.7131 10.2719 11.9996H5.98085C5.91203 10.2165 6.79107 8.33009 8.23872 7.32226Z" fill="white"/><path d="M10.0565 6.37502C13.6068 4.8675 17.9159 7.76197 17.9417 11.5781C16.7783 12.4653 13.6333 12.0686 13.6936 10.2338C13.7109 9.60504 14.176 9.07123 14.7792 8.89035C13.4349 7.71018 11.7627 6.90049 10.0565 6.37502Z" fill="white"/><path fill-rule="evenodd" clip-rule="evenodd" d="M11.9609 4.12287e-05C12.0815 -0.008572 13.4687 1.33503 13.6069 1.54205C13.6672 1.63674 13.7533 1.64538 13.7104 1.80872L12.2108 2.55828C15.2786 2.63581 18.1222 4.14399 20.0439 6.47849C21.3968 8.13241 22.5264 10.0872 23.8965 11.7497L24 12.0341L22.3539 13.7141L22.173 13.5761L21.4493 12.215C21.3717 15.2817 19.863 18.1251 17.5277 20.0461C15.8733 21.3984 13.9176 22.527 12.2546 23.8965L11.9701 24L10.2896 22.3545L10.4276 22.1737L11.7892 21.4502C8.72139 21.3726 5.87694 19.8645 3.95526 17.53C2.60251 15.8761 1.47351 13.9211 0.10351 12.2587L0 11.9744L1.64606 10.2944L1.82699 10.4324L2.55072 11.7935C2.58519 10.3032 2.9993 8.72647 3.68007 7.39124C5.42077 3.95422 9.03962 2.28277 11.9609 4.12287e-05ZM19.1569 14.8169C21.1992 9.56224 17.0456 3.87669 11.4357 4.30723C6.17912 4.71211 2.84435 10.165 4.92977 15.0407C7.61844 21.3291 16.6837 21.1743 19.1569 14.8169Z" fill="white"/></g><defs><clipPath id="clip0_5589_123"><rect width="24" height="24" fill="white"/></clipPath></defs></svg>