<svg width="24" height="24" viewBox="0 0 24 24" fill="none" xmlns="http://www.w3.org/2000/svg"><path d="M6.82362 12.5463C7.33148 12.0183 7.95303 11.5703 8.65804 11.2274C8.60239 11.4514 8.56993 11.6846 8.56993 11.9269C8.56993 13.6595 10.1075 15.0629 12.0023 15.0629C13.5678 15.0629 14.885 14.1052 15.2979 12.7955C14.943 13.1246 14.449 13.328 13.9017 13.328C12.8187 13.328 11.9397 12.5257 11.9397 11.5337C11.9397 11.1383 12.0811 10.7749 12.3177 10.48C14.4397 10.5623 16.302 11.4743 17.4431 12.8389C17.4931 12.7695 17.5422 12.699 17.5887 12.6275C17.5954 12.6172 17.6021 12.6068 17.6088 12.5964C17.6242 12.5722 17.6393 12.5479 17.6541 12.5234C18.6212 10.9257 18.4612 9.00343 17.4269 7.38973C17.2715 7.14742 17.0952 6.91202 16.9004 6.68341C16.5502 6.35888 16.2209 6.0457 15.9055 5.73712C13.3915 3.27999 12.0023 1.33257 12.0023 0C12.0023 0 9.88029 1.84913 8.77636 4.47084C8.33105 5.52914 8.05042 6.71086 8.1432 7.94969C8.1432 7.94969 6.91402 6.22402 6.2438 5.168C3.83418 8.17144 5.19321 11.4194 6.82362 12.5463Z" fill="white"/><path d="M19.3726 8.68569C19.3726 8.68569 20.5647 7.48568 19.7761 5.48571C18.8068 3.024 15.2259 2.55769 15.2259 2.55769C15.2259 2.55769 18.6189 5.36455 19.3726 8.68569Z" fill="white"/><path d="M20.5716 9.9634C20.7595 10.4571 20.901 11.0034 20.9775 11.616H20.9729C21.2141 13.5497 19.8202 15.9588 17.8397 17.4286C15.7645 18.9674 14.5924 19.5858 13.9797 19.9091C13.5303 20.1461 13.3818 20.2245 13.3985 20.3908C13.4239 20.6514 13.795 21.0308 14.2705 20.9806C14.641 20.9221 15.0504 20.7514 15.4969 20.5652C15.7659 20.4531 16.0483 20.3354 16.3438 20.2331L15.5553 21.984C15.226 22.7154 12 24 12 24C12 24 8.77405 22.7154 8.44471 21.984L7.65622 20.2331C7.95446 20.336 8.2391 20.4546 8.50977 20.5674C8.95469 20.7527 9.36184 20.9223 9.72952 20.9806C10.205 21.0308 10.5761 20.6491 10.6015 20.3908C10.6182 20.2234 10.4694 20.1449 10.0188 19.9073C9.40566 19.584 8.2338 18.9662 6.16031 17.4286C4.17978 15.9588 2.78594 13.5497 3.02712 11.616C3.10369 11.0034 3.24513 10.4571 3.43299 9.9634C4.3166 13.9291 7.81621 16.8937 12.0023 16.8937C16.1884 16.8937 19.6881 13.9314 20.5716 9.9634Z" fill="white"/></svg>