<svg width="24" height="24" viewBox="0 0 24 24" fill="none" xmlns="http://www.w3.org/2000/svg"><path fill-rule="evenodd" clip-rule="evenodd" d="M0 5.23999C3.59703 9.0567 7.70212 12.958 12.1769 15.7823C12.3748 15.9011 12.6331 16.0795 12.8568 16.1219V12.8395C15.8427 14.9768 17.7874 18.5901 17.9939 22.2371C11.9187 24.12 5.20644 22.4578 0.852131 17.9118H4.17326C1.60886 14.1969 0.189318 9.72675 0 5.23999ZM3.64887 12.3135C5.05154 16.6476 8.72582 20.9223 13.7685 20.5491C13.9149 20.5406 14.4136 20.4982 14.4652 20.337C10.636 17.9707 7.1081 15.1632 3.64887 12.3135Z" fill="white"/><path d="M7.69355 1.36365C13.3471 0.159446 19.1811 2.00037 23.1395 6.07987H19.8183L21.8403 9.63318C23.0708 12.5168 23.8795 15.6128 24 18.7509C20.9021 15.3329 17.4342 12.2625 13.6996 9.52302L11.1441 7.87806V11.1514C8.19246 9.06495 6.2821 5.48582 6.01534 1.92356C6.0935 1.69461 7.38385 1.43148 7.69355 1.36365Z" fill="white"/></svg>