<svg width="24" height="24" viewBox="0 0 24 24" fill="none" xmlns="http://www.w3.org/2000/svg"><path d="M13.7083 22.4326C14.5313 21.7475 13.8182 20.8958 13.8182 20.8958L16.0854 17.6788L17.8897 18.6562C18.3631 18.9127 18.9588 18.7265 19.2077 18.235C19.46 17.7454 19.2776 17.1377 18.8009 16.8794L17.9718 16.4303C19.3688 15.4628 27.4785 9.27816 19.6135 1L13.0404 13.7587L12.0339 13.2134C11.5571 12.9551 10.9649 13.1432 10.7125 13.6328C10.4603 14.1225 10.6426 14.7302 11.1194 14.9885L12.1259 15.5337L9.90974 19.8353C9.52431 20.5834 9.96046 21.6026 10.8809 22.1013L11.9535 22.6824C12.8174 23.1591 12.8853 23.1176 13.7083 22.4326Z" fill="white"/><path d="M12.7836 10.4627L12.1407 11.6348C10.3931 10.4401 5.7184 8.49877 1 10.2908C4.30138 7.97447 7.32634 6.9337 11.0643 7.39396C9.7568 5.87405 7.79676 4.50474 5.36886 4.24267C9.95614 2.67465 12.796 2.67468 15.631 5.44791L12.796 10.5148C12.792 10.4975 12.7879 10.4801 12.7836 10.4627Z" fill="white"/></svg>