<svg width="24" height="24" viewBox="0 0 24 24" fill="none" xmlns="http://www.w3.org/2000/svg"><path fill-rule="evenodd" clip-rule="evenodd" d="M18.8736 12.8043C19.6524 13.3883 20.5185 13.8575 21.3124 14.4181C21.3867 14.4702 21.4955 14.3958 21.4449 14.601C18.404 17.5095 15.6646 20.7532 12.0474 23C8.37523 20.8436 5.64023 17.4989 2.5756 14.601C2.525 14.3958 2.63372 14.4702 2.70804 14.4181C3.50194 13.8574 4.36808 13.3883 5.14689 12.8043V9.46919L6.86284 11.0043V13.5979L6.86389 13.5989L9.46537 12.7713L11.9623 14.4511L14.5562 12.7713L17.1577 13.5989V11.1107L18.8736 9.46919V12.8043ZM13.758 17.1851L12.0646 16.466L10.3475 17.2766L8.52493 15.6117C7.40788 17.3542 9.16051 18.4202 10.256 19.5213L12.0496 17.949L13.7655 19.5213C14.8966 18.3883 16.5339 17.4255 15.5483 15.6117L13.758 17.1851Z" fill="white"/><path fill-rule="evenodd" clip-rule="evenodd" d="M11.958 1.84681C12.1131 1.80851 12.1347 1.94357 12.209 2.02124C12.9781 2.83081 14.1114 5.06282 15.0475 5.46601C15.7347 5.76172 16.4014 5.71702 16.9809 5.21813C17.5002 4.77132 17.6413 3.83933 18.0215 3.49252C18.3285 3.21274 19.3109 2.89042 19.7321 2.69361V5.9223C19.7321 6.4074 18.9598 7.50431 18.5537 7.82878L12.0453 12.8394L5.46784 7.82878C5.06174 7.50431 4.28944 6.4074 4.28944 5.9223V2.69361C4.71064 2.89042 5.69302 3.21381 6.00003 3.49252C6.6108 4.04891 6.4449 5.18294 7.66106 5.55847C9.68188 6.18188 10.7914 3.00958 11.958 1.84681ZM12.8025 9.24469C14.4538 8.44256 13.6535 5.96601 11.8815 6.10431C9.27364 6.30646 10.2689 10.4765 12.8025 9.24469Z" fill="white"/><path d="M2.57339 7.72343C2.57348 7.86184 3.43079 9.17334 3.43084 9.3117V12.0117L0 9.57558V3.43507L2.57339 1V7.72343Z" fill="white"/><path d="M24 3.50956L23.9979 9.55324L20.5896 12.0106V9.31066C20.5896 9.17238 21.4468 7.86093 21.447 7.72239V1H21.4482L24 3.50956Z" fill="white"/></svg>