<svg width="24" height="24" viewBox="0 0 24 24" fill="none" xmlns="http://www.w3.org/2000/svg"><path fill-rule="evenodd" clip-rule="evenodd" d="M7.65803 5.41086C7.65803 2.97852 9.60559 1 11.9999 1C14.3943 1 16.3419 2.97852 16.3419 5.41086C16.3419 7.84323 14.3943 9.82177 11.9999 9.82177C9.60559 9.82177 7.65803 7.84323 7.65803 5.41086ZM14.1555 5.41086C14.1555 4.20411 13.1879 3.22112 11.9999 3.22112C10.812 3.22112 9.84443 4.20411 9.84443 5.41086C9.84443 6.61765 10.812 7.60065 11.9999 7.60065C13.1879 7.60065 14.1555 6.61765 14.1555 5.41086Z" fill="white"/><path d="M6.05633 5.35231C6.00897 6.27883 6.24574 7.11329 6.49691 7.72819L3.99345 8.86178L1 5.75179V5.35231H6.05633Z" fill="white"/><path d="M17.5031 7.72819C17.7543 7.11329 17.991 6.27883 17.9437 5.35231H23V5.75179L20.0065 8.86178L17.5031 7.72819Z" fill="white"/><path d="M4.41141 9.72137H7.82277V9.71928C8.30249 10.2003 8.86248 10.5977 9.4801 10.8926L8.321 13.4149C6.6699 12.6285 5.30081 11.3297 4.41141 9.72137Z" fill="white"/><path d="M12 11.3611C12.2306 11.3611 12.4571 11.3464 12.6814 11.3192L14.5838 13.7746L12 23L9.41623 13.7746L11.3185 11.3192C11.5409 11.3464 11.7694 11.3611 12 11.3611Z" fill="white"/><path d="M16.1772 9.72137H19.5886C18.6992 11.3297 17.3301 12.6285 15.679 13.4149L14.5199 10.8926C15.1376 10.5977 15.6975 10.2003 16.1772 9.71928V9.72137Z" fill="white"/></svg>