<svg width="24" height="24" viewBox="0 0 24 24" fill="none" xmlns="http://www.w3.org/2000/svg"><path fill-rule="evenodd" clip-rule="evenodd" d="M20.2311 0C20.3503 0 20.4741 0.00912879 20.5978 0.0251411V0.0274159C22.1119 0.230849 23.176 1.64342 22.9758 3.18172C22.7913 4.59426 21.6034 5.62056 20.2378 5.62056C20.1186 5.62056 19.9948 5.61143 19.8711 5.59539C19.2749 5.51544 18.7484 5.24341 18.3413 4.85256L17.2119 5.33485C17.3761 5.93829 17.4661 6.57367 17.4661 7.23195C17.4661 9.10628 16.7507 10.8091 15.5853 12.0823L16.7777 15.8491L13.7652 18.4983V11.328C13.7967 11.3097 13.826 11.2937 13.8574 11.2708C13.873 11.2573 13.8886 11.2432 13.9041 11.229C13.9201 11.2146 13.936 11.2001 13.952 11.1863C14.3321 10.8411 14.6584 10.4365 14.9261 9.99313C15.4098 9.18855 15.691 8.24229 15.691 7.23195C15.691 6.82287 15.6438 6.42513 15.5583 6.04341C15.4211 5.43541 15.1826 4.86627 14.8586 4.35656C13.925 2.88458 12.3006 1.90857 10.4535 1.90857C7.56485 1.90857 5.21383 4.29712 5.21383 7.23195C5.21383 7.64112 5.26108 8.03883 5.3466 8.42056C5.48379 9.02855 5.72229 9.59767 6.04626 10.1074L1.69969 11.9657L1 10.2788L3.68851 9.12911C3.52428 8.52567 3.43428 7.89026 3.43428 7.23195C3.43428 3.296 6.57496 0.105144 10.4491 0.105144C13.0363 0.105144 15.2973 1.52915 16.5122 3.648L17.5021 3.22515C17.4638 2.96913 17.4571 2.70626 17.4931 2.43883C17.6776 1.02627 18.8655 0 20.2311 0ZM20.2356 4.11425C20.8745 4.11425 21.4189 3.62741 21.5045 2.98284C21.5517 2.63772 21.4617 2.29484 21.2525 2.01829C21.0432 1.74174 20.7418 1.56342 20.4021 1.51771C20.3436 1.51083 20.285 1.50628 20.2288 1.50628C19.5899 1.50628 19.0455 1.99312 18.9599 2.63772C18.9127 2.98284 19.0027 3.32572 19.2119 3.6023C19.4212 3.87882 19.7226 4.05714 20.0623 4.10284C20.1208 4.1097 20.1793 4.11425 20.2356 4.11425Z" fill="white"/><path d="M8.09583 18.5006L5.08335 15.8514L8.09583 6.32684L12.3366 4.38403V21.4606L8.09583 24V18.5006Z" fill="white"/></svg>