<svg width="24" height="24" viewBox="0 0 24 24" fill="none" xmlns="http://www.w3.org/2000/svg"><path d="M11.3232 10.7242C11.7123 11.0705 12.2312 11.0249 12.6389 10.7242L18.1518 1.237C18.8282 0.726645 19.2914 1.1003 19.3656 1.84761C19.5787 4.17155 19.208 6.84181 19.3378 9.20221L15.8447 13.1484C15.4834 13.5402 16.169 14.4425 16.447 14.8161C16.5025 14.8982 16.4284 15.0075 16.6508 14.9619L19.3285 11.918C20.5052 12.0365 22.349 11.6811 23.4423 11.918C24.0353 12.0547 24.165 12.8385 23.7852 13.2577L17.5866 17.3315L18.9023 22.0614C18.9949 22.7267 18.4205 23.1277 17.7904 22.9272C17.0399 22.6811 14.3252 21.3232 13.6395 20.8766C11.7587 19.6554 13.8526 18.2975 14.6217 17.1856L12.0459 12.9114L9.35892 17.1856C10.128 18.2975 12.2219 19.6554 10.3411 20.8766C9.7666 21.2503 6.69049 22.8087 6.10677 22.9636C5.42113 23.1459 5.01345 22.6173 5.09684 21.9611C5.18023 21.2685 6.50518 17.5684 6.394 17.3315L0.176912 13.2668C-0.925671 11.0067 3.43833 12.1732 4.63357 11.918L7.31127 14.9619C7.53364 15.0166 7.45952 14.8982 7.51511 14.8161C7.7838 14.4425 8.47871 13.5402 8.11736 13.1484L4.6243 9.20221C4.74475 6.84181 4.37414 4.17155 4.59651 1.84761C4.67063 1.09119 5.1339 0.726645 5.81028 1.237L11.3325 10.7242H11.3232Z" fill="white"/></svg>