<svg width="24" height="24" viewBox="0 0 24 24" fill="none" xmlns="http://www.w3.org/2000/svg"><path d="M17.1872 7.31222C18.4837 7.04722 19.894 7.30549 21.0745 8.19709V8.19937C22.8284 9.5222 23.4755 11.923 22.6343 13.96C22.1991 15.0156 21.4538 15.8151 20.5657 16.3271C20.5679 16.3249 20.5702 16.3227 20.5702 16.3205C21.697 14.3553 21.0253 11.8309 19.0728 10.6968C17.1203 9.5626 14.6121 10.2386 13.4852 12.2037C13.4575 12.2515 13.4316 12.2997 13.4068 12.3483C13.3757 12.4094 13.3464 12.4713 13.3178 12.5339V12.5271C13.2219 12.7181 13.1371 12.9134 13.0679 13.1156L10.4459 20.6774V20.6684C10.0241 21.9329 9.09584 23.0311 7.73911 23.615C5.72409 24.4819 3.33416 23.8463 2.00194 22.0946C1.31244 21.185 0.997775 20.1384 1.00001 19.1075L1.00038 19.1079C1.00243 19.1101 1.00449 19.1122 1.00449 19.1143C2.13136 21.0795 4.63957 21.7554 6.59213 20.6213C8.5447 19.4871 9.21634 16.9627 8.08944 14.9976C8.02695 14.8875 7.95782 14.7865 7.88862 14.6854H7.8953C7.77925 14.5058 7.65208 14.3351 7.51371 14.1734L2.3166 8.114H2.32552C1.44853 7.11458 0.966548 5.75582 1.14282 4.28257C1.40615 2.09279 3.14668 0.325302 5.32016 0.0423226C6.44709 -0.105906 7.50703 0.143393 8.39291 0.662193H8.38403C6.12796 0.662193 4.29592 2.50604 4.29592 4.7766C4.29592 7.04722 6.13023 8.89332 8.38623 8.89332C8.5112 8.89332 8.6339 8.8866 8.7544 8.87537C8.75219 8.87759 8.74775 8.87981 8.74775 8.87981C8.95972 8.86862 9.17169 8.84388 9.37925 8.80348L17.1939 7.30549L17.1872 7.31222Z" fill="white"/><path d="M8.38397 6.82481C7.26151 6.82481 6.35108 5.90852 6.35108 4.77882C6.35108 3.64913 7.26151 2.73283 8.38397 2.73283C9.50639 2.73283 10.4168 3.64913 10.4168 4.77882C10.4168 5.90852 9.50639 6.82481 8.38397 6.82481Z" fill="white"/><path d="M15.2682 13.2368C15.8282 12.2598 17.0712 11.923 18.0441 12.4889L18.0463 12.4911C19.017 13.0549 19.3518 14.3058 18.7894 15.285C18.2271 16.2619 16.9842 16.5989 16.0112 16.0329C15.0405 15.4669 14.7058 14.216 15.2682 13.2368Z" fill="white"/><path d="M5.56336 18.8245C6.5363 18.2586 6.86876 17.0076 6.30643 16.0307C5.7441 15.0515 4.50115 14.7168 3.52827 15.2828C2.55533 15.8487 2.22283 17.0997 2.78516 18.0789C3.34749 19.0581 4.59042 19.3927 5.56336 18.8268V18.8245Z" fill="white"/></svg>