<svg width="24" height="24" viewBox="0 0 24 24" fill="none" xmlns="http://www.w3.org/2000/svg"><path d="M11.9817 0C12.4129 0.292951 15.1055 2.30007 15.1856 2.52472C15.3528 3.00731 14.4285 4.62778 14.4285 5.23964V5.24805L11.9817 3.43025L4.23752 9.72102C4.77443 14.4348 8.18889 18.3127 12.0522 20.898C15.8451 18.2437 19.2865 14.4434 19.8058 9.72102C19.4802 9.40216 17.1127 7.69532 17.1743 7.4454L19.1896 5.79087L22.4898 8.46287C22.7624 15.0898 17.5433 20.9149 11.9903 24C6.46381 20.8114 1.45629 15.2358 1.50029 8.62613L11.9817 0Z" fill="white"/><path d="M13.7418 7.03219L12.2284 11.6853H12.237L15.8104 8.68672L17.8163 10.2377C18.1594 10.6427 17.4999 12.1331 17.2886 12.616C16.2062 15.0548 14.0939 17.261 11.9731 18.8639C9.91386 17.1404 7.82793 15.0893 6.7367 12.616C6.52535 12.1331 5.86587 10.6427 6.20902 10.2377L12.0522 5.57543L13.7418 7.03219Z" fill="white"/></svg>