<svg width="24" height="24" viewBox="0 0 24 24" fill="none" xmlns="http://www.w3.org/2000/svg"><path d="M15.4029 2.45477C15.4457 2.60982 15.3601 2.63614 15.3002 2.72228C14.941 3.24767 14.1116 3.79003 13.7012 4.32402V6.84861C16.7536 6.66771 19.2588 4.59983 21.3621 2.55824C21.8666 5.12524 20.9779 7.88207 18.8405 9.40685C17.9684 9.32071 17.1046 9.13143 16.2153 9.21757C14.4285 9.40707 13.7616 10.7761 15.8045 11.2155C17.2837 11.5343 19.2338 11.0865 20.5163 10.2767C20.3795 11.6205 19.6182 13.1022 18.5324 13.9033C18.3444 14.0411 17.4388 14.5666 17.2758 14.5671H15.4113C15.5396 15.9883 16.8138 17.1939 17.968 17.8917V18.0473L12.8554 24V20.5105L14.4452 18.8053L12.8804 17.1514L12.0513 9.94104C11.7949 9.86357 11.9148 10.1826 11.8977 10.3204C11.6668 12.6031 11.4273 14.8859 11.1195 17.1514L9.55473 18.8053L11.1454 20.5105V24L6.0403 18.0473V17.8917C7.18599 17.1939 8.46013 15.9884 8.59701 14.5671H6.73334C6.57092 14.5671 5.66506 14.0413 5.4767 13.9033C4.38227 13.1022 3.62959 11.6205 3.49279 10.2767C3.96305 10.561 4.45061 10.8199 4.98072 10.9749C6.07513 11.3022 8.0753 11.5345 9.0671 10.906C9.69126 10.5097 9.47754 9.81203 8.88758 9.50191C7.82739 8.94205 6.29717 9.28644 5.16859 9.39844C3.0225 7.8823 2.13331 5.11671 2.63777 2.55824C4.74111 4.59985 7.25483 6.66771 10.2987 6.84861V4.32402C10.2459 4.13354 8.9306 3.04954 8.69971 2.72228C8.63986 2.63614 8.55425 2.60982 8.59701 2.45477L11.9661 0L15.4029 2.45477Z" fill="white"/></svg>