<svg width="24" height="24" viewBox="0 0 24 24" fill="none" xmlns="http://www.w3.org/2000/svg"><g clip-path="url(#clip0_5589_250)"><path d="M16.1047 3.1601C14.5205 1.32141 17.1982 -1.11744 18.8846 0.564127C19.5331 1.21083 19.5983 2.44877 18.9407 3.11408C21.1645 5.43324 22.7577 8.50129 21.9793 11.7998C21.2008 15.0981 17.1336 17.5929 14.0759 18.7016C14.2612 19.2558 14.6127 19.6994 14.7147 20.2997C15.1224 22.6927 13.4176 24.458 10.9992 23.8945C10.1837 23.7005 8.43187 22.5365 7.89443 22.4995C7.49578 22.4722 6.61549 22.9887 6.04117 23.0626C2.79835 23.4411 1.15823 21.178 0 18.5356C0.0741302 18.4063 0.157816 18.3874 0.29681 18.3597C2.98391 17.8239 6.28217 18.0643 7.73697 20.7066L12 22.1476C12.0832 21.6212 11.8513 21.2147 11.5919 20.7806C10.0074 18.1843 6.24579 17.4171 4.04042 15.1997C0.36171 11.5038 1.70496 6.46811 5.05935 3.11408C3.8085 1.52486 5.28184 -0.470643 7.21846 0.17613C8.65464 0.656668 8.71015 3.01271 7.30171 3.60404C7.00531 3.72405 6.60703 3.70544 6.40314 3.85308C5.37468 4.58295 4.6337 7.64108 4.61504 8.86095C4.55017 12.9633 8.78424 15.1442 12.0552 16.5117C15.2799 15.0518 19.4589 12.9726 19.394 8.86095C19.3753 7.64108 18.6344 4.59219 17.6059 3.85308C17.226 3.58526 16.6328 3.7791 16.1047 3.1601Z" fill="white"/><path d="M18.3751 18.6827C19.7095 18.0915 22.2299 18.0733 23.7032 18.3597C23.8421 18.3874 23.9166 18.4063 24 18.5356C22.6008 22.1944 19.5428 24.4298 15.6975 22.2586C16.0497 20.9004 17.0409 19.274 18.3751 18.6827Z" fill="white"/><path d="M10.211 2.36606C10.665 1.28501 13.2975 2.23631 14.0759 2.65209C21.2197 6.42202 16.2437 16.5671 9.14592 13.3148C5.65253 11.7163 5.29137 6.8651 9.36852 5.78404C10.3229 5.53462 11.6667 5.34071 12.4172 6.08903C13.3808 7.04992 12.9727 8.84225 11.657 9.21196C11.1474 9.35979 10.091 9.29557 10.1558 10.2379C10.2484 11.6976 12.5366 10.8848 13.2596 10.3489C15.641 8.62112 14.9837 4.95295 12.2597 4.00106C11.4351 3.71466 9.58141 3.87169 10.211 2.36606Z" fill="white"/></g><defs><clipPath id="clip0_5589_250"><rect width="24" height="24" fill="white"/></clipPath></defs></svg>