<svg width="24" height="24" viewBox="0 0 24 24" fill="none" xmlns="http://www.w3.org/2000/svg"><path fill-rule="evenodd" clip-rule="evenodd" d="M7.99025 5.57976C9.07627 5.77876 9.90338 6.7257 9.90338 7.86332C9.90338 9.14549 8.80473 10.1867 7.56929 10.1867C6.33387 10.1867 5.32154 9.22513 5.24366 8.01417C4.4502 8.32425 3.75359 8.99886 3.14952 10.3292C2.10577 12.6246 3.74502 14.6926 4.64318 15.8256C4.98202 16.2531 5.21539 16.5475 5.15946 16.6709C4.95531 17.1213 -1.07873 14.226 1.75625 8.69926C1.99199 8.23836 1.97305 7.64336 1.06801 7.35216C1.56259 6.43872 3.06533 4.17607 6.39703 4.16139C7.35253 1.9637 8.9794 1.19903 9.57294 1L10.2485 2.30524C9.46348 2.53773 8.09338 3.72564 7.99025 5.57976ZM6.47698 7.86332C6.47698 8.4604 6.96737 8.94855 7.56929 8.94855C8.17123 8.94855 8.66162 8.46254 8.66162 7.86332C8.66162 7.26418 8.17123 6.77601 7.56929 6.77601C6.96737 6.77601 6.47698 7.26627 6.47698 7.86332Z" fill="white"/><path d="M11.9996 7.86543L14.1021 5.60069C13.4413 4.34785 11.9996 4.45682 11.9996 4.45682C11.9996 4.45682 10.5579 4.34785 9.89704 5.60069L11.9996 7.86543Z" fill="white"/><path d="M10.3222 19.8239C10.1538 20.1423 10.1201 20.2073 9.94965 20.5257L11.4524 22.7129C11.585 22.9057 11.7954 23.0021 12.0059 23C12.2164 23.0021 12.4269 22.9078 12.5594 22.7129L14.0621 20.5257L13.9731 20.3573C13.9248 20.2657 13.8884 20.1968 13.848 20.1206L13.7845 20.0013C13.7575 19.9508 13.7268 19.8934 13.6896 19.8239H10.3222Z" fill="white"/><path fill-rule="evenodd" clip-rule="evenodd" d="M22.243 8.70135C22.0052 8.23833 22.0241 7.64336 22.9312 7.35422C22.4366 6.44078 20.9339 4.17815 17.6022 4.1635C16.6467 1.96789 15.0198 1.20111 14.4263 1.00209L13.7507 2.3073C14.5378 2.53982 15.9079 3.7277 16.009 5.58182C14.923 5.77876 14.0958 6.72784 14.0958 7.86541C14.0958 9.14549 15.1418 10.1888 16.4299 10.1888C17.718 10.1888 18.6777 9.22721 18.7556 8.01623C19.549 8.32631 20.2456 9.00303 20.8497 10.3313C21.8913 12.6254 20.2542 14.6922 19.3564 15.8257C19.0169 16.2542 18.7832 16.5494 18.8397 16.673C19.0439 17.1234 25.0801 14.2301 22.243 8.70135ZM16.4299 8.95063C15.828 8.95063 15.3376 8.46251 15.3376 7.86541C15.3376 7.26832 15.828 6.77809 16.4299 6.77809C17.0318 6.77809 17.5222 7.26624 17.5222 7.86541C17.5222 8.4646 17.0318 8.95063 16.4299 8.95063Z" fill="white"/><path d="M10.1475 12.7573L14.9777 15.2839C15.7164 15.6694 15.7227 16.7169 14.9903 17.1129C14.5946 17.3266 14.1716 17.555 13.7654 17.7728C13.2455 18.0536 12.6941 17.4565 13.0161 16.9641C13.1571 16.7484 13.0877 16.4572 12.8625 16.3294C12.2626 15.9858 10.2821 14.8146 8.30591 13.6435C6.99258 12.8663 7.54823 10.8634 9.07412 10.8634H10.2043C10.821 10.8634 10.9914 11.7098 10.4211 11.9465L10.179 12.0471C9.87177 12.1749 9.85283 12.6023 10.1475 12.7573Z" fill="white"/><path d="M16.4783 12.1267C16.4783 12.1267 15.7564 11.7517 14.3 10.9912C13.2161 10.4256 13.0603 9.48072 13.0519 9.03235H10.8547V10.1092C10.8547 10.5953 11.1177 11.0436 11.545 11.2804C12.4458 11.7789 13.9254 12.6002 14.0853 12.6924C14.3168 12.8243 14.4263 13.1512 14.2789 13.3984C13.8328 14.1463 14.7104 14.9781 15.4407 14.5004L16.5246 13.7881C17.1328 13.3879 17.1076 12.4933 16.4804 12.1267H16.4783Z" fill="white"/><path d="M12.0775 19.0382C11.7702 19.0382 11.4671 18.8958 11.3051 18.636C11.1914 18.4516 10.9599 18.2568 10.5011 18.018C9.43611 17.4628 8.90998 17.1883 8.90998 17.1883C8.44906 16.9222 8.43219 16.2665 8.87628 15.9753L9.66766 15.4557C10.2001 15.1058 10.8421 15.7134 10.5158 16.2602C10.4064 16.4404 10.4864 16.6792 10.6568 16.7756C10.7747 16.8427 11.8565 17.4439 12.5152 17.8084C12.8267 17.9823 13.0183 18.3092 13.0183 18.6632C13.0183 18.8707 12.8499 19.0382 12.6415 19.0382H12.0775Z" fill="white"/></svg>