<svg width="1024" height="1024" viewBox="0 0 1024 1024" xmlns="http://www.w3.org/2000/svg" role="img" aria-labelledby="opnrLogoTitle">
  <title id="opnrLogoTitle">opnr.gg open hex logo</title>
  <defs>
    <linearGradient id="opnrWhite" x1="264" y1="214" x2="760" y2="820" gradientUnits="userSpaceOnUse">
      <stop offset="0" stop-color="#ffffff"/>
      <stop offset="0.48" stop-color="#f7f7f7"/>
      <stop offset="1" stop-color="#eef1ed"/>
    </linearGradient>

    <radialGradient id="opnrAccent" cx="512" cy="508" r="136" gradientUnits="userSpaceOnUse">
      <stop offset="0" stop-color="#e6ff39"/>
      <stop offset="0.72" stop-color="#d9f933"/>
      <stop offset="1" stop-color="#b5d81f"/>
    </radialGradient>

    <filter id="opnrAccentGlow" x="332" y="370" width="360" height="292" filterUnits="userSpaceOnUse" color-interpolation-filters="sRGB">
      <feGaussianBlur stdDeviation="14"/>
    </filter>
  </defs>

  <path d="
    M 444 776
    L 306 691
    C 271 670 250 633 250 592
    L 250 415
    C 250 374 272 337 307 316
    L 476 218
    C 498 205 526 205 548 218
    L 717 316
    C 752 337 774 374 774 415
    L 774 592
    C 774 633 753 670 718 691
    L 580 776"
    fill="none"
    stroke="url(#opnrWhite)"
    stroke-width="104"
    stroke-linecap="round"
    stroke-linejoin="round"/>

  <path d="M 430 552 L 512 478 L 594 552" fill="none" stroke="#d9f933" stroke-width="88" stroke-linecap="round" stroke-linejoin="round" opacity="0.18" filter="url(#opnrAccentGlow)"/>
  <path d="M 430 552 L 512 478 L 594 552" fill="none" stroke="url(#opnrAccent)" stroke-width="54" stroke-linecap="round" stroke-linejoin="round"/>
</svg>
